# xmcd
#
# Track frame offsets: 
#        150
#        16000
#        32137
#        44852
#        69702
#        85527
#        98570
#        112250
#        130122
#        153362
#        173120
#        196770
#        219365
#        238635
#        256862
#        276007
#        295245
#        323162
#
# Disc length: 4594 seconds
#
# Revision: 1
# Processed by: cddbd v1.5.2PL0 Copyright (c) Steve Scherf et al.
# Submitted via: ExactAudioCopy v0.95a5
#
DISCID=f611f012
DTITLE=Various Artist - Cruisin' Summer Best Songs [CD1)
DYEAR=2004
DGENRE=Other
TTITLE0=The Rubettes - Sugar Baby Love
TTITLE1=The Beach Boys - Kokomo
TTITLE2=David Lee Roth - California Girs
TTITLE3=TOTO - Rosanna
TTITLE4=America - Ventura Highway
TTITLE5=Kalapana - What Do I Do
TTITLE6=Stephen Bishop - On And On
TTITLE7=Kool and The Gang - Cherish
TTITLE8=Steve Winwood - While You See A Chance
TTITLE9=Michael Jackson - Farewell My Summer Love
TTITLE10=Boz Scaggs - Lowdown
TTITLE11=Finis Henderson - Skip To My Lou
TTITLE12=Pablo Cruise - Whatcha Gonna Do?
TTITLE13=The Style Council - My Ever Changing Moods
TTITLE14=Player - Baby Come Back
TTITLE15=Sergio Mendes - Never Gonna Let You Go
TTITLE16=The Isley Brothers - Summer Breeze
TTITLE17=Bobby Caldwell - What You Won't Do For Love
EXTD=
EXTT0=
EXTT1=
EXTT2=
EXTT3=
EXTT4=
EXTT5=
EXTT6=
EXTT7=
EXTT8=
EXTT9=
EXTT10=
EXTT11=
EXTT12=
EXTT13=
EXTT14=
EXTT15=
EXTT16=
EXTT17=
PLAYORDER=
